<svg fill="none" xmlns="http://www.w3.org/2000/svg" viewBox="0 0 18 19"><g opacity=".8"><path d="m15 5.82-2.25-2.25 1.5-1.5c.38-.13 1.28-.23 1.88.37.6.6.5 1.5.37 1.88L15 5.82Z" fill="#000" fill-opacity=".2"/><path fill-rule="evenodd" clip-rule="evenodd" d="M.75 2.82H9v1.5H2.25v11.25c0 .41.34.75.75.75h10.5c.41 0 .75-.34.75-.75v-6h1.5v6c0 1.24-1 2.25-2.25 2.25H3c-1.24 0-2.25-1.01-2.25-2.25V2.82Z" fill="url(#a)"/><path fill-rule="evenodd" clip-rule="evenodd" d="M13.94 1.32h.6a2.7 2.7 0 0 1 2.71 2.7v.6l-9.44 9.45H4.5v-3.31l9.44-9.44Zm.62 1.5L6 11.38v1.19h1.19L15.75 4a1.2 1.2 0 0 0-1.19-1.2Z" fill="url(#b)"/><path fill-rule="evenodd" clip-rule="evenodd" d="m14.73 6.08-2.25-2.25.54-.53 2.25 2.25-.54.53Z" fill="url(#c)"/></g><defs><linearGradient id="a" x1="8.25" y1="2.82" x2="8.25" y2="17.82" gradientUnits="userSpaceOnUse"><stop stop-color="#0A75C2"/><stop offset="1" stop-color="#1671B6"/></linearGradient><linearGradient id="b" x1="10.88" y1="1.32" x2="10.88" y2="14.07" gradientUnits="userSpaceOnUse"><stop stop-color="#0A75C2"/><stop offset="1" stop-color="#1671B6"/></linearGradient><linearGradient id="c" x1="13.88" y1="3.3" x2="13.88" y2="6.08" gradientUnits="userSpaceOnUse"><stop stop-color="#0A75C2"/><stop offset="1" stop-color="#1671B6"/></linearGradient></defs></svg>