<?xml version="1.0" encoding="utf-8"?>
<svg xmlns="http://www.w3.org/2000/svg">
<symbol id="bug" viewBox="0 0 24 24">
<path fill-rule="evenodd" clip-rule="evenodd" d="M12 2C14.1422 2 15.8911 3.68397 15.9951 5.80036L16 6L16.0009 6.17102C16.8483 6.47084 17.5208 7.1406 17.8244 7.9862C18.3775 7.93309 18.8969 7.68887 19.2929 7.29289C19.7004 6.88542 19.9471 6.34728 19.9924 5.77695L20 5.58579V5L20.0067 4.88338C20.0645 4.38604 20.4872 4 21 4C21.5128 4 21.9355 4.38604 21.9933 4.88338L22 5V5.58579L21.9938 5.81922C21.9364 6.9049 21.4797 7.93447 20.7071 8.70711C19.9777 9.4365 19.0193 9.88428 18.0009 9.98045L18 12H21C21.5523 12 22 12.4477 22 13C22 13.5523 21.5523 14 21 14H18L18.0009 16.0196C19.0193 16.1157 19.9777 16.5635 20.7071 17.2929C21.4797 18.0655 21.9364 19.0951 21.9938 20.1808L22 20.4142V21C22 21.5523 21.5523 22 21 22C20.4872 22 20.0645 21.614 20.0067 21.1166L20 21V20.4142C20 19.7739 19.7456 19.1599 19.2929 18.7071C18.8854 18.2996 18.3473 18.0529 17.777 18.0076L17.6573 18.0037C16.8326 20.3322 14.6111 22 12 22C9.38895 22 7.16744 20.3322 6.34272 18.0037L6.22305 18.0076C5.65272 18.0529 5.11458 18.2996 4.70711 18.7071C4.29963 19.1146 4.05285 19.6527 4.00757 20.223L4 20.4142V21L3.99327 21.1166C3.93551 21.614 3.51284 22 3 22C2.48716 22 2.06449 21.614 2.00673 21.1166L2 21V20.4142L2.00617 20.1808C2.06362 19.0951 2.52026 18.0655 3.29289 17.2929C4.02253 16.5633 4.98129 16.1154 6.00005 16.0195L6 14H3C2.44772 14 2 13.5523 2 13C2 12.4477 2.44772 12 3 12H6L6.00005 9.98054C4.98129 9.88457 4.02253 9.43674 3.29289 8.70711C2.52026 7.93447 2.06362 6.9049 2.00617 5.81922L2 5.58579V5C2 4.44772 2.44772 4 3 4C3.51284 4 3.93551 4.38604 3.99327 4.88338L4 5V5.58579C4 6.22608 4.25435 6.84014 4.70711 7.29289C5.10309 7.68887 5.62246 7.93309 6.17485 7.98811C6.47931 7.14027 7.15224 6.47032 8.00009 6.17067L8 6C8 3.79086 9.79086 2 12 2ZM9 8C8.48716 8 8.06449 8.38604 8.00673 8.88338L8 9V16C8 18.2091 9.79086 20 12 20C14.1422 20 15.8911 18.316 15.9951 16.1996L16 16V9C16 8.48716 15.614 8.06449 15.1166 8.00673L15 8H9ZM10.0055 5.85074C10.0818 4.81588 10.9456 4 12 4L12.1493 4.00549L12.3028 4.02277C13.2637 4.16869 14 4.99836 14 6H10L10.0055 5.85074Z"/>

</symbol>
<symbol id="burger" viewBox="0 0 24 24"><path clip-rule="evenodd" fill-rule="evenodd" d="M0 1h24v2H0zM0 9h24v3H0zM0 19h24v4H0z"/>
</symbol>
<symbol id="calendar" viewBox="0 0 24 24">
<path fill-rule="evenodd" clip-rule="evenodd" d="M17 2C17.5523 2 18 2.44772 18 3V4H19C20.6569 4 22 5.34315 22 7V19C22 20.6569 20.6569 22 19 22H5C3.34315 22 2 20.6569 2 19V7C2 5.34315 3.34315 4 5 4H6V3C6 2.44772 6.44772 2 7 2C7.55228 2 8 2.44772 8 3V4H16V3C16 2.44772 16.4477 2 17 2ZM4 12V19C4 19.5523 4.44772 20 5 20H19C19.5523 20 20 19.5523 20 19V12H4ZM4 10H20V7C20 6.44772 19.5523 6 19 6H18V7C18 7.55228 17.5523 8 17 8C16.4477 8 16 7.55228 16 7V6H8V7C8 7.55228 7.55228 8 7 8C6.44772 8 6 7.55228 6 7V6H5C4.44772 6 4 6.44772 4 7V10Z"/>

</symbol>
<symbol id="check" viewBox="0 0 24 24">
<path fill-rule="evenodd" clip-rule="evenodd" d="M7.70711 11.2929C7.31658 10.9024 6.68342 10.9024 6.29289 11.2929C5.90237 11.6834 5.90237 12.3166 6.29289 12.7071L10.2929 16.7071C10.698 17.1122 11.36 17.0948 11.7433 16.669L17.7433 9.66897C18.1128 9.25846 18.0795 8.62617 17.669 8.25671C17.2585 7.88726 16.6262 7.92053 16.2567 8.33104L10.9618 14.5476L7.70711 11.2929Z"/>

</symbol>
<symbol id="chevron-left" viewBox="0 0 24 24">
<path fill-rule="evenodd" clip-rule="evenodd" d="M13.2928 5.29312L7.29275 11.2931C6.90175 11.6841 6.90175 12.3161 7.29275 12.7071L13.2928 18.7071C13.6838 19.0981 14.3157 19.0981 14.7068 18.7071C15.0978 18.3161 15.0978 17.6841 14.7068 17.2931L9.41375 12.0001L14.7068 6.70712C15.0978 6.31612 15.0978 5.68412 14.7068 5.29312C14.5118 5.09812 14.2558 5.00012 13.9998 5.00012C13.7438 5.00012 13.4878 5.09812 13.2928 5.29312Z"/>

</symbol>
<symbol id="chevron-right" viewBox="0 0 24 24">
<path fill-rule="evenodd" clip-rule="evenodd" d="M9.70725 18.7074L15.7073 12.7074C16.0983 12.3164 16.0983 11.6844 15.7073 11.2934L9.70725 5.29337C9.31625 4.90237 8.68425 4.90237 8.29325 5.29337C7.90225 5.68437 7.90225 6.31637 8.29325 6.70737L13.5862 12.0004L8.29325 17.2934C7.90225 17.6844 7.90225 18.3164 8.29325 18.7074C8.48825 18.9024 8.74425 19.0004 9.00025 19.0004C9.25625 19.0004 9.51225 18.9024 9.70725 18.7074Z"/>

</symbol>
<symbol id="chevron-thin-left" viewBox="0 0 24 24">
<path fill-rule="evenodd" clip-rule="evenodd" d="M14.3536 17.3536C14.1583 17.5488 13.8417 17.5488 13.6464 17.3536L8.29289 12L13.6464 6.64645C13.8417 6.45118 14.1583 6.45118 14.3536 6.64645C14.5488 6.84171 14.5488 7.15829 14.3536 7.35355L9.70711 12L14.3536 16.6464C14.5488 16.8417 14.5488 17.1583 14.3536 17.3536Z"/>

</symbol>
<symbol id="chevron-thin-right" viewBox="0 0 24 24">
<path fill-rule="evenodd" clip-rule="evenodd" d="M8.64645 6.64645C8.84171 6.45118 9.15829 6.45118 9.35355 6.64645L14.7071 12L9.35355 17.3536C9.15829 17.5488 8.84171 17.5488 8.64645 17.3536C8.45118 17.1583 8.45118 16.8417 8.64645 16.6464L13.2929 12L8.64645 7.35355C8.45118 7.15829 8.45118 6.84171 8.64645 6.64645Z"/>

</symbol>
<symbol id="chevron_down" viewBox="0 0 24 24">
    <path fill-rule="evenodd" clip-rule="evenodd" d="M21.0002 8.00025C21.0002 8.25625 20.9023 8.51225 20.7073 8.70725L12.7072 16.7072C12.3162 17.0982 11.6842 17.0982 11.2933 16.7072L3.29325 8.70725C2.90225 8.31625 2.90225 7.68425 3.29325 7.29325C3.68425 6.90225 4.31625 6.90225 4.70725 7.29325L12.0002 14.5862L19.2932 7.29325C19.6842 6.90225 20.3162 6.90225 20.7073 7.29325C20.9023 7.48825 21.0002 7.74425 21.0002 8.00025Z"/>

</symbol>
<symbol id="chevron_up" viewBox="0 0 24 24">
<path fill-rule="evenodd" clip-rule="evenodd" d="M2.99975 16.0003C2.99975 15.7443 3.09775 15.4883 3.29275 15.2933L11.2927 7.29325C11.6837 6.90225 12.3157 6.90225 12.7067 7.29325L20.7067 15.2933C21.0977 15.6843 21.0977 16.3163 20.7067 16.7073C20.3158 17.0983 19.6838 17.0983 19.2927 16.7073L11.9997 9.41425L4.70675 16.7073C4.31575 17.0983 3.68375 17.0983 3.29275 16.7073C3.09775 16.5123 2.99975 16.2563 2.99975 16.0003Z"/>

</symbol>
<symbol id="close" viewBox="0 0 24 24"><path fill-rule="evenodd" clip-rule="evenodd" d="M11.75 13.1643L18.7928 20.2071L20.2071 18.7929L13.1642 11.75L20.2072 4.70711L18.7929 3.29289L11.75 10.3358L4.70706 3.29289L3.29285 4.70711L10.3358 11.75L3.29294 18.7929L4.70715 20.2071L11.75 13.1643Z"/>
</symbol>
<symbol id="confirmation" viewBox="0 0 24 24">
<path fill-rule="evenodd" clip-rule="evenodd" d="M12 24C18.6274 24 24 18.6274 24 12C24 5.37258 18.6274 0 12 0C5.37258 0 0 5.37258 0 12C0 18.6274 5.37258 24 12 24ZM6.29289 11.2929C6.68342 10.9024 7.31658 10.9024 7.70711 11.2929L10.9618 14.5476L16.2567 8.33104C16.6262 7.92053 17.2585 7.88726 17.669 8.25671C18.0795 8.62617 18.1128 9.25846 17.7433 9.66897L11.7433 16.669C11.36 17.0948 10.698 17.1122 10.2929 16.7071L6.29289 12.7071C5.90237 12.3166 5.90237 11.6834 6.29289 11.2929Z" fill="#388E3C"/>

</symbol>
<symbol id="error" viewBox="0 0 24 24">
<path fill-rule="evenodd" clip-rule="evenodd" d="M12 24C18.6274 24 24 18.6274 24 12C24 5.37258 18.6274 0 12 0C5.37258 0 0 5.37258 0 12C0 18.6274 5.37258 24 12 24ZM16.7071 7.29289C16.3166 6.90237 15.6834 6.90237 15.2929 7.29289L12 10.5858L8.70711 7.29289C8.31658 6.90237 7.68342 6.90237 7.29289 7.29289C6.90237 7.68342 6.90237 8.31658 7.29289 8.70711L10.5858 12L7.29289 15.2929C6.90237 15.6834 6.90237 16.3166 7.29289 16.7071C7.68342 17.0976 8.31658 17.0976 8.70711 16.7071L12 13.4142L15.2929 16.7071C15.6834 17.0976 16.3166 17.0976 16.7071 16.7071C17.0976 16.3166 17.0976 15.6834 16.7071 15.2929L13.4142 12L16.7071 8.70711C17.0976 8.31658 17.0976 7.68342 16.7071 7.29289Z" fill="#EF5350"/>

</symbol>
<symbol id="hide" viewBox="0 0 24 24">
<path fill-rule="evenodd" clip-rule="evenodd" d="M11.8607 12.861C15.7481 12.861 18.7687 10.5387 20.2261 9.13965L21.6112 10.5824C20.0286 12.1017 16.5276 14.861 11.8607 14.861C7.1938 14.861 3.69277 12.1017 2.11023 10.5824L3.49528 9.13965C4.95269 10.5387 7.97331 12.861 11.8607 12.861Z"/>

</symbol>
<symbol id="info" viewBox="0 0 24 24">
<path fill-rule="evenodd" clip-rule="evenodd" d="M24 12C24 18.6274 18.6274 24 12 24C5.37258 24 0 18.6274 0 12C0 5.37258 5.37258 0 12 0C18.6274 0 24 5.37258 24 12ZM11 12C11 11.4477 11.4477 11 12 11C12.5523 11 13 11.4477 13 12V17C13 17.5523 12.5523 18 12 18C11.4477 18 11 17.5523 11 17V12ZM12 6C11.4477 6 11 6.44772 11 7V8C11 8.55228 11.4477 9 12 9C12.5523 9 13 8.55229 13 8V7C13 6.44772 12.5523 6 12 6Z" fill="#1565C0"/>

</symbol>
<symbol id="link_arrow" viewBox="0 0 24 24"><path d="M14.19 8.75H10v-1.5h6.75V14h-1.5V9.81l-6.72 6.72-1.06-1.06 6.72-6.72z"/>
</symbol>
<symbol id="load" viewBox="0 0 24 24">
<path d="M23 12C23 18.0751 18.0751 23 12 23C5.92487 23 1 18.0751 1 12C1 5.92487 5.92487 1 12 1" stroke="black" stroke-width="2" stroke-linecap="round"/>

</symbol>
<symbol id="logo" viewBox="0 0 85 79"><path d="M66.5 45.209h-5.7v13.582h5.7c3.6 0 6.5-3.03 6.5-6.791 0-3.761-2.9-6.791-6.5-6.791zM66 55.448h-1.7v-7H66c1.8 0 3.3 1.567 3.3 3.447 0 1.986-1.5 3.553-3.3 3.553zM57.8 45.209h-3.5v13.582h3.5V45.209zM7.1 45C3.2 45 0 48.134 0 52s3.2 7 7.1 7c3.9 0 7.1-3.134 7.1-7-.1-3.866-3.2-7-7.1-7zm0 10.552c-1.8 0-3.3-1.567-3.3-3.552s1.5-3.552 3.3-3.552c1.8 0 3.3 1.567 3.3 3.552 0 1.88-1.5 3.552-3.3 3.552zM29.8 45.209h10.7v3.239h-3.6v10.239h-3.5v-10.24h-3.6V45.21zM24.6 45.209h3.5v7.313c0 4.18-2.6 6.478-6.2 6.478s-6.2-2.298-6.2-6.478V45.21h3.5v7.836c0 1.671 1 2.507 2.7 2.507 1.7 0 2.7-.94 2.7-2.507v-7.836zM74.9 45.209h9.7v3.239h-6.1v1.88h5.4v3.135h-5.4v2.09h6.1v3.134h-9.7V45.209zM51.9 54.508c0 2.402-1.4 4.387-5.1 4.387-3.1 0-5.1-1.671-5.1-4.388h3.1c0 .94.6 1.254 2 1.254 1.5 0 2-.522 2-1.15 0-.626-.5-1.044-2.1-1.357-3-.523-4.7-1.776-4.7-4.075C42 46.672 43.7 45 46.9 45c3.3 0 4.9 1.776 4.9 4.18h-3.1c0-.628-.5-1.15-1.7-1.15-1.3 0-1.7.418-1.7 1.045s.4.94 1.9 1.253c2.5.627 4.7 1.463 4.7 4.18zM59.8 65.207h-3.1l-5.3 13.486h3.8l.8-2.386h4.5l.8 2.385h3.8l-5.3-13.484zM57 73.61l1.3-3.838 1.3 3.838H57zM34.8 71.016c0 .312.1.623.1.934 0 3.838-3.2 6.95-7.1 6.95-3.9 0-7.1-3.112-7.1-6.95S23.9 65 27.8 65c3.1 0 5.7 1.97 6.7 4.564h-4.1c-.6-.726-1.5-1.245-2.5-1.245-1.8 0-3.3 1.556-3.3 3.527 0 2.075 1.5 3.527 3.5 3.527 1.5 0 2.5-.726 3.1-1.66H28v-2.8h6.8v.103zM6.7 65.207H1v13.486h5.7c3.6 0 6.5-3.009 6.5-6.743 0-3.734-2.9-6.743-6.5-6.743zm-.5 10.27H4.5v-6.95h1.7c1.8 0 3.3 1.556 3.3 3.423 0 1.97-1.5 3.527-3.3 3.527zM18.7 65.207h-3.5v13.486h3.5V65.206zM40.3 65.207h-3.5v13.486h3.5V65.206zM41.9 65.207h10.6v3.32h-3.6v10.165h-3.5V68.528h-3.5v-3.32zM66.4 65.207h3.5v10.27h5.3v3.215h-8.8V65.209z"/><path fill-rule="evenodd" clip-rule="evenodd" d="M32.8 26H2.2c2.988 5.368 8.72 9 15.3 9s12.312-3.632 15.3-9zm1.2 0h27.881c-3.024 5.522-8.978 9-15.829 9H34v-9zm29.45-4c.359-1.42.55-2.925.55-4.5 0-1.21-.113-2.38-.328-3.5H.35A17.58 17.58 0 000 17.5c0 1.556.203 3.064.584 4.5H63.45zM58.828 5a16.759 16.759 0 013.984 6H34V5h24.828zM1.247 11h32.506a17.525 17.525 0 00-4.006-6H5.253a17.524 17.524 0 00-4.006 6zM27.3 3c-2.796-1.894-6.17-3-9.801-3a17.419 17.419 0 00-9.801 3H27.3zM34 3h22.33c-2.912-1.917-6.455-3-10.278-3H34v3z"/>
</symbol>
<symbol id="logo_s" viewBox="0 0 64 35"><path fill-rule="evenodd" clip-rule="evenodd" d="M32.8 26H2.2c2.988 5.368 8.72 9 15.3 9s12.312-3.632 15.3-9zm1.2 0h27.881c-3.024 5.522-8.978 9-15.829 9H34v-9zm29.45-4c.359-1.42.55-2.925.55-4.5 0-1.21-.113-2.38-.328-3.5H.35A17.58 17.58 0 000 17.5c0 1.556.203 3.064.584 4.5H63.45zM58.828 5a16.759 16.759 0 013.984 6H34V5h24.828zM1.247 11h32.506a17.525 17.525 0 00-4.006-6H5.253a17.524 17.524 0 00-4.006 6zM27.3 3c-2.796-1.894-6.17-3-9.801-3a17.419 17.419 0 00-9.801 3H27.3zM34 3h22.33c-2.912-1.917-6.455-3-10.278-3H34v3z"/>
</symbol>
<symbol id="pause" viewBox="0 0 24 24"><path d="M7 6h3v12H7zM14 6h3v12h-3z"/>
</symbol>
<symbol id="play" viewBox="0 0 24 24"><path d="M9 18V6l8 6-8 6z"/>
</symbol>
<symbol id="search" viewBox="0 0 24 24">
    <path fill-rule="evenodd" clip-rule="evenodd" d="M10.5 15C12.9853 15 15 12.9853 15 10.5C15 8.01472 12.9853 6 10.5 6C8.01472 6 6 8.01472 6 10.5C6 12.9853 8.01472 15 10.5 15ZM10.5 17C14.0899 17 17 14.0899 17 10.5C17 6.91015 14.0899 4 10.5 4C6.91015 4 4 6.91015 4 10.5C4 14.0899 6.91015 17 10.5 17Z"/>
    <path fill-rule="evenodd" clip-rule="evenodd" d="M14.2929 14.2929C14.6834 13.9024 15.3166 13.9024 15.7071 14.2929L19.7071 18.2929C20.0976 18.6834 20.0976 19.3166 19.7071 19.7071C19.3166 20.0976 18.6834 20.0976 18.2929 19.7071L14.2929 15.7071C13.9024 15.3166 13.9024 14.6834 14.2929 14.2929Z"/>

</symbol>
<symbol id="view" viewBox="0 0 24 24">
<path fill-rule="evenodd" clip-rule="evenodd" d="M12 18C6 18 2 12 2 12C2 12 6 6 12 6C18 6 22 12 22 12C22 12 18 18 12 18ZM3.66204 13.1125C3.66239 13.112 3.66283 13.1113 3.66336 13.1106L3.66278 13.1114L3.66204 13.1125ZM3.66092 13.1141L3.66204 13.1125C3.66121 13.1137 3.66084 13.1143 3.66092 13.1141ZM6.05158 10.5185C5.44626 11.0374 4.94027 11.5587 4.54973 12C4.94027 12.4413 5.44626 12.9626 6.05158 13.4815C6.59287 13.9454 7.19057 14.3882 7.8364 14.7694C7.30799 13.9766 7 13.0243 7 12C7 10.9757 7.30799 10.0234 7.83641 9.23056C7.19057 9.6118 6.59287 10.0546 6.05158 10.5185ZM16.1636 9.23056C16.692 10.0234 17 10.9757 17 12C17 13.0243 16.692 13.9766 16.1636 14.7694C16.8094 14.3882 17.4071 13.9454 17.9484 13.4815C18.5537 12.9626 19.0597 12.4413 19.4503 12C19.0597 11.5587 18.5537 11.0374 17.9484 10.5185C17.4071 10.0546 16.8094 9.6118 16.1636 9.23056ZM20.3372 10.8886L20.3382 10.8872L20.3391 10.8859C20.3391 10.8859 20.3383 10.8871 20.3366 10.8894L20.3372 10.8886ZM15 12C15 13.6569 13.6569 15 12 15C10.3431 15 9 13.6569 9 12C9 10.3431 10.3431 9 12 9C13.6569 9 15 10.3431 15 12Z"/>

</symbol>
<symbol id="warning" viewBox="0 0 24 24">
<circle cx="12" cy="12" r="12" fill="#FFB300"/>
<rect x="11" y="6" width="2" height="7" rx="1" fill="black"/>
<rect x="11" y="15" width="2" height="3" rx="1" fill="black"/>

</symbol></svg>