<?xml version="1.0" encoding="utf-8"?>
<svg xmlns="http://www.w3.org/2000/svg">
<symbol id="edit-20" viewBox="0 0 18 19">
  <g opacity=".8">
    <path d="m15 5.82-2.25-2.25 1.5-1.5c.38-.13 1.28-.23 1.88.37.6.6.5 1.5.37 1.88L15 5.82Z" fill="#000" fill-opacity=".2"/>
    <path fill-rule="evenodd" clip-rule="evenodd" d="M.75 2.82H9v1.5H2.25v11.25c0 .41.34.75.75.75h10.5c.41 0 .75-.34.75-.75v-6h1.5v6c0 1.24-1 2.25-2.25 2.25H3c-1.24 0-2.25-1.01-2.25-2.25V2.82Z"/>
    <path fill-rule="evenodd" clip-rule="evenodd" d="M13.94 1.32h.6a2.7 2.7 0 0 1 2.71 2.7v.6l-9.44 9.45H4.5v-3.31l9.44-9.44Zm.62 1.5L6 11.38v1.19h1.19L15.75 4a1.2 1.2 0 0 0-1.19-1.2Z"/>
    <path fill-rule="evenodd" clip-rule="evenodd" d="m14.73 6.08-2.25-2.25.54-.53 2.25 2.25-.54.53Z"/>
  </g>
</symbol>
<symbol id="ellipsis-14" viewBox="0 0 14 14">
  <path d="M12.25 7a.88.88 0 1 0-1.75 0 .88.88 0 0 0 1.75 0Z" fill-opacity=".9"/>
  <path d="M3.5 7a.87.87 0 1 0-1.75 0A.87.87 0 0 0 3.5 7ZM7.88 7a.87.87 0 1 0-1.75 0 .87.87 0 0 0 1.75 0Z"/>
</symbol>
</svg>
